<?xml version="1.0" encoding="iso-8859-1"?>
<!-- Generator: Adobe Illustrator 16.0.0, SVG Export Plug-In . SVG Version: 6.00 Build 0)  -->
<!DOCTYPE svg PUBLIC "-//W3C//DTD SVG 1.1//EN" "http://www.w3.org/Graphics/SVG/1.1/DTD/svg11.dtd">
<svg version="1.1" id="Capa_1" xmlns="http://www.w3.org/2000/svg" xmlns:xlink="http://www.w3.org/1999/xlink" x="0px" y="0px"
	 width="194.355px" height="194.355px" viewBox="0 0 194.355 194.355" style="enable-background:new 0 0 194.355 194.355;"
	 xml:space="preserve">
<g>
	<path d="M193.978,161.954c-7.633-12.803-20.761-20.616-29.161-32.767c-0.021-0.03-0.046-0.051-0.068-0.08
		c0.335-0.265,0.682-0.516,0.987-0.815c5.963-5.841,6.067-14.158,6.695-22.009c0.983-12.296,0.808-24.684,1.022-37.008
		c0.157-9.011,0.743-18.04-0.672-26.983c-2.974-18.797-22.441-17.208-37.184-17.161c-26.887,0.085-53.749,1.728-80.599,2.967
		c-8.416,0.388-18.14-0.599-26.317,1.81c-4.77,1.404-5.343,6.976-5.871,11.107c-1.507,11.788-1.487,23.437-1.798,35.292
		c-0.299,11.357-1.434,22.639-0.648,34.005c0.229,3.321,0.848,6.547,1.737,9.751c0.208,0.751,0.615,1.262,1.109,1.585
		c0.152,0.68,0.623,1.293,1.518,1.673c0.777,0.331,1.575,0.623,2.37,0.921c-9.119,13.132-16.431,27.49-26.38,40.036
		c-1.425,1.797-0.724,5.003,2.025,4.89c32.316-1.335,64.325-3.521,96.673-1.825c30.987,1.625,61.964,3.82,92.784-1.023
		C194.122,166.014,194.878,163.463,193.978,161.954z M133.498,150.525c0.356,0.526,0.709,1.053,1.065,1.579
		c-0.534-0.338-1.087-0.649-1.63-0.974C133.165,150.966,133.354,150.76,133.498,150.525z M56.806,122.879
		c-9.696-0.452-20.003-0.888-29.056-4.728c-0.107-0.045-0.21-0.064-0.316-0.099c-3.489-17.095-0.38-35.395-0.315-52.704
		c0.035-9.351,0.264-19.063,2.376-28.213c0.989-4.286,19.024-2.82,22.304-2.968c21.501-0.97,42.989-2.183,64.504-2.807
		c10.685-0.31,21.374-0.403,32.062-0.284c9.832,0.109,16.588,2.599,18.731,12.779c1.507,7.16,0.732,15.123,0.532,22.367
		c-0.287,10.32-0.245,20.645-0.604,30.964c-0.278,8.014,1.089,21.916-6.052,27.359c-5.193,3.959-13.907,2.372-19.868,1.665
		c-18.757-2.225-37.413-1.925-56.278-2.155C75.484,123.943,66.142,123.314,56.806,122.879z M82.588,154.881
		c0.381-1.243,0.993-2.293,2.467-3.134c2.115-1.206,5.06-1.223,7.41-1.332c4.094-0.19,8.182,0.176,12.274,0.043
		c0.438,1.565,0.862,3.134,1.159,4.728C98.137,155.212,90.34,155.259,82.588,154.881z"/>
</g>
<g>
</g>
<g>
</g>
<g>
</g>
<g>
</g>
<g>
</g>
<g>
</g>
<g>
</g>
<g>
</g>
<g>
</g>
<g>
</g>
<g>
</g>
<g>
</g>
<g>
</g>
<g>
</g>
<g>
</g>
</svg>
