<svg xmlns="http://www.w3.org/2000/svg" xmlns:xlink="http://www.w3.org/1999/xlink" width="1536" height="236.741" viewBox="0 0 1536 236.741"><defs><linearGradient id="a" x1="0.5" y1="1" x2="0.5" y2="0.001" gradientUnits="objectBoundingBox"><stop offset="0" stop-color="gray" stop-opacity="0.251"/><stop offset="0.54" stop-color="gray" stop-opacity="0.122"/><stop offset="1" stop-color="gray" stop-opacity="0.102"/></linearGradient><linearGradient id="b" x1="0.531" y1="1.017" x2="0.531" y2="-0.007" xlink:href="#a"/><linearGradient id="c" x1="0" y1="0.5" x2="1" y2="0.5" xlink:href="#a"/><linearGradient id="d" x1="0" y1="0.5" x2="1" y2="0.5" xlink:href="#a"/><linearGradient id="f" x1="0" y1="0.5" x2="1" y2="0.5" xlink:href="#a"/><linearGradient id="g" x1="0" y1="0.5" x2="1" y2="0.5" xlink:href="#a"/><linearGradient id="i" x1="0" y1="0.5" x2="1" y2="0.5" xlink:href="#a"/><linearGradient id="j" x1="0" y1="0.5" x2="1" y2="0.5" xlink:href="#a"/><linearGradient id="o" x1="0" y1="0.5" x2="1" y2="0.5" xlink:href="#a"/><linearGradient id="p" x1="0" y1="0.501" x2="1" y2="0.501" xlink:href="#a"/><linearGradient id="q" x1="0" y1="0.5" x2="1" y2="0.5" xlink:href="#a"/><linearGradient id="s" x1="0" y1="0.5" x2="1" y2="0.5" xlink:href="#a"/><linearGradient id="t" x1="0" y1="0.5" x2="1" y2="0.5" xlink:href="#a"/><linearGradient id="u" x1="0" y1="0.5" x2="0.999" y2="0.5" xlink:href="#a"/><linearGradient id="v" x1="0" y1="0.5" x2="0.999" y2="0.5" xlink:href="#a"/><linearGradient id="w" x1="0.5" y1="1" x2="0.5" y2="0" xlink:href="#a"/><linearGradient id="x" x1="0.5" y1="1" x2="0.5" y2="0" xlink:href="#a"/></defs><g transform="translate(5.327 -28.029)"><g transform="translate(-5.327 28.029)"><path d="M311.421,145.063c-10.685,16.069-7.981,38.4-2.6,56.1,1.811,5.922,3.858,12.181,2.642,18.726-1.488,8-7.554,14.17-13.773,17.621-11.332,6.295-24.486,5.777-34.245-1.343-8.434-6.155-14.166-16.656-22.773-22.509-14.386-9.759-33.6-4.538-50.184,3.85-11.736,5.927-24.621,13.487-35.744,8.745-7.826-3.337-12.9-12.325-15.418-22.03-1.216-4.685-2.013-9.79-4.606-13.4a17.194,17.194,0,0,0-5.768-4.82c-19.593-11.058-45.443-2.885-64.4-15.319-12.792-8.383-20.4-25.236-23.244-43.126s-1.441-36.92.458-55.646C43.114,58.6,45.047,44.364,52.471,33.7A34.174,34.174,0,0,1,84.3,18.962c11.237,1.353,21.117,8.054,29.716,16.144C124.766,45.2,134.559,57.993,148.2,61.5c9.293,2.393,19.308.147,29.075-1.035,16.329-1.953,32.511-.867,48.585.424,15.39,1.237,30.878,2.688,45.332,7.961,10.227,3.731,18.2,11.161,27.791,16.1,6.25,3.221,13.211,3.785,19.067,8.02,7.215,5.213,13.591,14.667,11.084,26.348C326.754,130.44,317.091,136.525,311.421,145.063Z" transform="translate(-39.693 -18.74)" fill="#6c63ff" opacity="0.1"/><rect width="71.317" height="1.899" transform="translate(160.89 21.612)" fill="#6c63ff" opacity="0.1"/><rect width="71.317" height="1.899" transform="translate(160.89 30.897)" fill="#6c63ff" opacity="0.1"/><rect width="7.286" height="81.419" transform="translate(143.696 143.706)" fill="#d6d6e3"/><path d="M205.522,360.808v-75.1a7.9,7.9,0,0,0-7.877-7.9h0a7.9,7.9,0,0,0-7.9,7.9V376.6a7.9,7.9,0,0,0,7.9,7.914H246.54a7.9,7.9,0,0,0,7.9-7.9h0a7.9,7.9,0,0,0-7.9-7.9H213.421a7.9,7.9,0,0,1-7.9-7.914Z" transform="translate(-134.3 -205.576)" fill="#aebee1"/><path d="M205.522,360.808v-75.1a7.9,7.9,0,0,0-7.877-7.9h0a7.9,7.9,0,0,0-7.9,7.9V376.6a7.9,7.9,0,0,0,7.9,7.914H246.54a7.9,7.9,0,0,0,7.9-7.9h0a7.9,7.9,0,0,0-7.9-7.9H213.421a7.9,7.9,0,0,1-7.9-7.914Z" transform="translate(-134.3 -205.576)" fill="#535461"/><path d="M268.407,376.194a7.9,7.9,0,0,0-7.884-7.472H227.4a7.9,7.9,0,0,1-7.9-7.9v-75.1a7.9,7.9,0,0,0-7.5-7.884l0,98.354Z" transform="translate(-148.316 -205.561)" fill="#d6d6e3"/><rect width="7.286" height="83.318" transform="translate(215.882 143.706)" fill="#d6d6e3"/><rect width="7.286" height="6.019" transform="translate(143.696 144.081)" opacity="0.1"/><rect width="7.286" height="6.019" transform="translate(215.882 144.081)" opacity="0.1"/><path d="M495.681,337.92q-.175,1.925-.442,3.9H494.21v-3.9Z" transform="translate(-326.055 -243.203)" opacity="0.1"/><path d="M525.534,378.454a2.248,2.248,0,0,1-2.107,2.4H501.191v-2.318h18.5a1.162,1.162,0,0,0,.9-1.739l-16.779-34.126a1.487,1.487,0,0,0-1.3-.84h-8.3v-3.9h10.481a1.04,1.04,0,0,1,.91.587l19.235,37.154A6.314,6.314,0,0,1,525.534,378.454Z" transform="translate(-326.137 -243.291)" fill="#535461"/><path d="M463.264,313.314l-.3.513-2.85-1.9,8.817-67.795h2.27s.093.312.245.907C472.962,250.9,480.426,284.078,463.264,313.314Z" transform="translate(-304.601 -184.212)" fill="#535461"/><path d="M471.438,245.037l-8.174,68.278-.3.513-2.85-1.9,8.817-67.795h2.27S471.286,244.453,471.438,245.037Z" transform="translate(-304.594 -184.212)" opacity="0.1"/><rect width="70.329" height="5.387" transform="translate(152.942 129.049) rotate(-83.17)" fill="#d6d6e3"/><path d="M400.068,446a.639.639,0,0,1-.635.635h-.951a.635.635,0,0,1-.635-.635.309.309,0,0,1,0-.074.635.635,0,0,1,.628-.557h.951a.639.639,0,0,1,.613.483A.586.586,0,0,1,400.068,446Z" transform="translate(-265.342 -310.896)" fill="#e3edf9"/><path d="M407.742,446a.639.639,0,0,1-.635.635h-.951a.635.635,0,0,1-.635-.635.625.625,0,0,1,.026-.175.6.6,0,0,1,.16-.271.62.62,0,0,1,.446-.186h.951a.639.639,0,0,1,.583.372A.655.655,0,0,1,407.742,446Z" transform="translate(-270.178 -310.896)" fill="#e3edf9"/><path d="M414.562,446a.639.639,0,0,1-.635.635h-.951a.635.635,0,0,1-.635-.635.6.6,0,0,1,.056-.264.646.646,0,0,1,.576-.372h.951a.632.632,0,0,1,.635.635Z" transform="translate(-274.475 -310.889)" fill="#e3edf9"/><path d="M422.243,446a.639.639,0,0,1-.635.635h-.951a.635.635,0,0,1-.52-1l.074-.082a.62.62,0,0,1,.446-.186h.951a.639.639,0,0,1,.461.2A.613.613,0,0,1,422.243,446Z" transform="translate(-279.315 -310.896)" fill="#e3edf9"/><path d="M400.049,446.66a.588.588,0,0,1,.019.152.639.639,0,0,1-.635.635h-.951a.635.635,0,0,1-.635-.635.309.309,0,0,1,0-.074Z" transform="translate(-265.342 -311.707)" opacity="0.1"/><path d="M407.69,446.39a.655.655,0,0,1,.052.249.639.639,0,0,1-.635.635h-.951a.635.635,0,0,1-.635-.635.624.624,0,0,1,.026-.175Z" transform="translate(-270.178 -311.538)" opacity="0.1"/><path d="M414.475,446.16a.633.633,0,0,1-.539.97h-.951a.635.635,0,0,1-.635-.635.6.6,0,0,1,.056-.264Z" transform="translate(-274.481 -311.393)" opacity="0.1"/><path d="M422.243,446.341a.639.639,0,0,1-.635.635h-.951a.635.635,0,0,1-.52-1l1.932-.067a.613.613,0,0,1,.175.431Z" transform="translate(-279.315 -311.236)" opacity="0.1"/><path d="M410.263,449.193H391.89v-.836a1.43,1.43,0,0,1,1.382-1.43l14.735-.509a2.185,2.185,0,0,1,2.259,2.181Z" transform="translate(-261.624 -311.559)" fill="#d6d6e3"/><rect width="7.286" height="92.833" transform="translate(232.697 143.706)" fill="#d6d6e3"/><rect width="7.286" height="6.019" transform="translate(232.697 144.081)" opacity="0.1"/><rect width="5.391" height="35.434" transform="translate(86.177 180.403)" fill="#d6d6e3"/><rect width="5.391" height="2.627" transform="translate(86.177 180.631)" opacity="0.1"/><path d="M270.569,566.728v.743a1.742,1.742,0,0,1-1.743,1.742H245.353a1.742,1.742,0,0,1-1.743-1.742v-.743A1.742,1.742,0,0,1,245.353,565h23.474a1.743,1.743,0,0,1,1.743,1.743Z" transform="translate(-168.199 -386.276)" fill="#d6d6e3"/><path d="M270.844,565.617H244.68a1.735,1.735,0,0,1,1.345-.617H269.5A1.735,1.735,0,0,1,270.844,565.617Z" transform="translate(-168.872 -386.265)" opacity="0.1"/><rect width="44.291" height="4.236" rx="2.118" transform="translate(66.765 213.908)" fill="#d6d6e3"/><circle cx="2.697" cy="2.697" r="2.697" transform="translate(66.618 218.143)" fill="#535461"/><circle cx="2.697" cy="2.697" r="2.697" transform="translate(105.732 218.143)" fill="#535461"/><circle cx="2.697" cy="2.697" r="2.697" transform="translate(86.173 218.143)" fill="#535461"/><path d="M272.64,660.32s2.118,2.092,5.391,0" transform="translate(-186.463 -446.412)" opacity="0.1"/><path d="M629.732,309.563s-6.049-10.994-3.838-20.55a19.012,19.012,0,0,0-1.059-11.978,31.976,31.976,0,0,0-2.835-5.1" transform="translate(-406.587 -201.677)" fill="none" stroke="#535461" stroke-miterlimit="10" stroke-width="2"/><path d="M616.585,251.8c.316,1.442-1.375,6.194-1.375,6.194s-3.526-3.6-3.845-5.045a2.671,2.671,0,1,1,5.2-1.148Z" transform="translate(-399.806 -187.5)" fill="#6c63ff"/><path d="M633.228,268.357c-.516,1.382-4.518,4.458-4.518,4.458s-1-4.941-.483-6.316a2.671,2.671,0,1,1,5,1.858Z" transform="translate(-410.408 -197.047)" fill="#6c63ff"/><path d="M639.1,303.418c-1.144.933-6.149,1.56-6.149,1.56s1.631-4.771,2.775-5.7a2.671,2.671,0,1,1,3.374,4.143Z" transform="translate(-413.484 -218.48)" fill="#6c63ff"/><path d="M639.146,332.988c-.97,1.115-5.8,2.578-5.8,2.578s.8-4.979,1.768-6.089a2.671,2.671,0,1,1,4.024,3.511Z" transform="translate(-413.734 -237.273)" fill="#6c63ff"/><path d="M612.956,282.142c1.256.776,6.3.743,6.3.743s-2.229-4.522-3.485-5.3a2.671,2.671,0,1,0-2.812,4.54Z" transform="translate(-400.053 -204.916)" fill="#6c63ff"/><path d="M611.778,315.842c1.43.372,6.234-1.159,6.234-1.159s-3.481-3.648-4.912-4.013a2.671,2.671,0,0,0-1.323,5.172Z" transform="translate(-398.947 -225.999)" fill="#6c63ff"/><path d="M616.654,349.21c1.345.6,6.342-.089,6.342-.089s-2.816-4.184-4.161-4.785a2.672,2.672,0,0,0-2.181,4.878Z" transform="translate(-402.222 -247.101)" fill="#6c63ff"/><path d="M616.585,251.8c.316,1.442-1.375,6.194-1.375,6.194s-3.526-3.6-3.845-5.045a2.671,2.671,0,1,1,5.2-1.148Z" transform="translate(-399.806 -187.5)" fill="#6c63ff"/><path d="M633.228,268.357c-.516,1.382-4.518,4.458-4.518,4.458s-1-4.941-.483-6.316a2.671,2.671,0,1,1,5,1.858Z" transform="translate(-410.408 -197.047)" fill="#6c63ff"/><path d="M639.1,303.418c-1.144.933-6.149,1.56-6.149,1.56s1.631-4.771,2.775-5.7a2.671,2.671,0,1,1,3.374,4.143Z" transform="translate(-413.484 -218.48)" fill="#6c63ff"/><path d="M639.146,332.988c-.97,1.115-5.8,2.578-5.8,2.578s.8-4.979,1.768-6.089a2.671,2.671,0,1,1,4.024,3.511Z" transform="translate(-413.734 -237.273)" fill="#6c63ff"/><path d="M612.956,282.142c1.256.776,6.3.743,6.3.743s-2.229-4.522-3.485-5.3a2.671,2.671,0,1,0-2.812,4.54Z" transform="translate(-400.053 -204.916)" fill="#6c63ff"/><path d="M611.778,315.842c1.43.372,6.234-1.159,6.234-1.159s-3.481-3.648-4.912-4.013a2.671,2.671,0,0,0-1.323,5.172Z" transform="translate(-398.947 -225.999)" fill="#6c63ff"/><path d="M616.654,349.21c1.345.6,6.342-.089,6.342-.089s-2.816-4.184-4.161-4.785a2.672,2.672,0,0,0-2.181,4.878Z" transform="translate(-402.222 -247.101)" fill="#6c63ff"/><path d="M625.416,396.139h0a6.368,6.368,0,0,1-6.357-6.769l1.78-28.2h9.155l1.78,28.2a6.368,6.368,0,0,1-6.357,6.769Z" transform="translate(-404.742 -257.92)" fill="#6c63ff"/><rect width="5.202" height="21.549" transform="translate(168.12 0.1)" fill="#6c63ff" opacity="0.1"/><rect width="5.202" height="21.549" transform="translate(174.779 0.1)" fill="#6c63ff" opacity="0.1"/><rect width="5.202" height="21.549" transform="translate(181.438 0.1)" fill="#6c63ff" opacity="0.1"/><rect width="5.202" height="21.549" transform="translate(188.097 0.1)" fill="#6c63ff" opacity="0.1"/><rect width="5.202" height="21.549" transform="translate(201.415 0.1)" fill="#6c63ff" opacity="0.1"/><rect width="5.202" height="21.549" transform="translate(208.074 0.1)" fill="#6c63ff" opacity="0.1"/><rect width="5.202" height="1.115" transform="translate(168.12 4.187)" fill="#6c63ff" opacity="0.1"/><rect width="5.202" height="1.115" transform="translate(168.12 17.562)" fill="#6c63ff" opacity="0.1"/><rect width="5.202" height="1.115" transform="translate(174.779 4.187)" fill="#6c63ff" opacity="0.1"/><rect width="5.202" height="1.115" transform="translate(174.779 17.562)" fill="#6c63ff" opacity="0.1"/><rect width="5.202" height="1.115" transform="translate(181.438 4.187)" fill="#6c63ff" opacity="0.1"/><rect width="5.202" height="1.115" transform="translate(181.438 17.562)" fill="#6c63ff" opacity="0.1"/><rect width="5.202" height="1.115" transform="translate(188.097 4.187)" fill="#6c63ff" opacity="0.1"/><rect width="5.202" height="1.115" transform="translate(188.097 17.562)" fill="#6c63ff" opacity="0.1"/><rect width="5.202" height="1.115" transform="translate(194.756 4.187)" fill="#6c63ff" opacity="0.1"/><rect width="5.202" height="1.115" transform="translate(194.756 17.562)" fill="#6c63ff" opacity="0.1"/><rect width="5.202" height="1.115" transform="translate(201.415 4.187)" fill="#6c63ff" opacity="0.1"/><rect width="5.202" height="1.115" transform="translate(201.415 17.562)" fill="#6c63ff" opacity="0.1"/><rect width="5.202" height="1.115" transform="translate(208.074 4.187)" fill="#6c63ff" opacity="0.1"/><rect width="5.202" height="1.115" transform="translate(208.074 17.562)" fill="#6c63ff" opacity="0.1"/><rect width="5.202" height="21.549" transform="translate(194.756 0.1)" fill="#6c63ff" opacity="0.1"/><rect width="5.202" height="21.549" transform="translate(213.395 2.185) rotate(-24.84)" fill="#6c63ff" opacity="0.1"/><rect width="5.202" height="1.115" transform="translate(215.135 5.898) rotate(-24.84)" fill="#6c63ff" opacity="0.1"/><rect width="5.202" height="1.115" transform="translate(220.726 18.034) rotate(-24.84)" fill="#6c63ff" opacity="0.1"/><path d="M289.831,376.278l-9.441-6.023c-.048-8.482-.182-47.862,1.583-53.13a8.653,8.653,0,0,0,.074-4.685,13.563,13.563,0,0,0-11.12-10.232,159.8,159.8,0,0,1-18.391-3.957c5.28-.546,9.236-1.018,9.236-1.018l.1-.977,3.4-.163v-.145l.323-.019c7.94-.472,24.8-2.044,19.071-6.747a13.212,13.212,0,0,0-7.234-2.63c8.27-1.887,21.2-5.543,15.434-8.98-5.477-3.262-13.862-.7-18.867,1.386l-.308.13-.056-.45-2,.4h0l-.635.126-.03-.654-28.047,4.332a95.723,95.723,0,0,0-1.144-9.589c.628-4.184,3.548-10.284,2.519-13.557-1.2-3.8-6.108-5.046-8.174-8.479-.542-.9-1.081-1.735-1.609-2.471a26.007,26.007,0,0,0-3.957-4.276,18.058,18.058,0,0,1,1.456-6.409,31.049,31.049,0,0,1,1.962-3.938A13.227,13.227,0,0,0,243.8,218.89c1.776.762,3.935.84,5.046-.646l-.528-.2a1.675,1.675,0,0,0,.149-.175,9.973,9.973,0,0,1-3.076-1.631,3.6,3.6,0,0,1-.539-.8c-.513-1.04-.453-2.289-.944-3.344a3.867,3.867,0,0,0-.962-1.256,6.624,6.624,0,0,0-3.143-1.8,39.744,39.744,0,0,1-4.039-1.115,13.654,13.654,0,0,0-14.531-4.087l-.464.16a6.059,6.059,0,1,0-11.82-2.675,6.045,6.045,0,0,1,1.621-3.619c-.1.082-.2.16-.29.245a6.063,6.063,0,0,0-.264,8.571l.108.1a6.089,6.089,0,0,0,1.52,1.33,6.063,6.063,0,0,1-4-4.967v.372a6.063,6.063,0,0,0,6.446,5.7l.167-.019-.089.123a13.639,13.639,0,0,0,1.226,16.886,6.316,6.316,0,0,0,.973,1.56,5.055,5.055,0,0,0,.45.453,5.763,5.763,0,0,0,3.886,1.791q.372.442.791.851a22.121,22.121,0,0,1-.959,3.061,32.449,32.449,0,0,1-2.943,5.673c-8.025,2.281-8.731,15.909-8.441,16.426.346.617-1.2,22.017,4.748,47.869-.245,7.39,4.065,19.61,19.365,16.389,19.134,1.022,25.41,3.953,25.41,3.953s-1.817,33.279.777,38.124c1.624,3.035.472,7.494-.743,10.641a11.691,11.691,0,0,0-1.07,2.467c-.372.784-.643,1.26-.643,1.26h.26c-.981,3.407-1.676,7.52-1.676,7.52s23.2,4.707,33.4,1.627c3.961-1.2,4.124-2.3,2.839-3.217a20.672,20.672,0,0,0,2.8-.613C304.833,378.8,289.831,376.278,289.831,376.278Z" transform="translate(-145.629 -154.98)" fill="url(#a)"/><path d="M247.751,232.375A13.375,13.375,0,1,1,234.375,219a13.375,13.375,0,0,1,13.375,13.375Z" transform="translate(-153.95 -168.301)" fill="#fa595f"/><path d="M374.09,415.964l1.356,6.769s1.508-.271,3.741-.743c7.628-1.616,23.745-5.607,17.5-9.329-5.369-3.2-13.591-.684-18.5,1.36-1.8.743-3.151,1.434-3.756,1.757C374.213,415.894,374.09,415.964,374.09,415.964Z" transform="translate(-250.419 -289.351)" fill="#f8b9bf"/><path d="M375.063,422.753l.973,4.86s1.508-.271,3.741-.743l-.992-7.97c-1.8.743-3.151,1.434-3.756,1.757Z" transform="translate(-250.973 -294.236)" opacity="0.1"/><path d="M334.576,408.765l4.659-.933-1.055-8.512-3.73.747Z" transform="translate(-210.719 -274.968)" fill="#d9dfe8"/><path d="M334.576,409.431l2.01-.4-.368-8.646-1.769.353Z" transform="translate(-210.714 -275.635)" opacity="0.1"/><path d="M245.038,342.791s9.069-4.726,12.365,10.124,3.344,21.62,3.344,21.62l28.207-4.358.438,10.251s-30.318,8.334-34.044,7.464-15.04-21.865-15.04-21.865S229.943,349.7,245.038,342.791Z" transform="translate(-163.968 -245.912)" fill="#6c63ff"/><g transform="translate(73.571 96.903)" opacity="0.1"><path d="M374.09,415.964l1.356,6.769s1.508-.271,3.741-.743c7.628-1.616,23.745-5.607,17.5-9.329-5.369-3.2-13.591-.684-18.5,1.36-1.8.743-3.151,1.434-3.756,1.757C374.213,415.894,374.09,415.964,374.09,415.964Z" transform="translate(-323.839 -386.221)"/><path d="M375.063,422.753l.973,4.86s1.508-.271,3.741-.743l-.992-7.97c-1.8.743-3.151,1.434-3.756,1.757Z" transform="translate(-324.429 -391.1)" opacity="0.1"/><path d="M334.576,408.765l4.659-.933-1.055-8.512-3.73.747Z" transform="translate(-284.176 -371.832)"/><path d="M334.576,409.431l2.01-.4-.368-8.646-1.769.353Z" transform="translate(-284.176 -372.498)" opacity="0.1"/><path d="M247.038,344.791s9.069-4.726,12.365,10.124,3.344,21.62,3.344,21.62l28.207-4.358.438,10.251s-30.318,8.334-34.044,7.464-15.04-21.865-15.04-21.865S231.943,351.7,247.038,344.791Z" transform="translate(-238.838 -344.076)"/></g><path d="M368.386,654.825l11.124,7.059s14.709,2.463,4.7,5.484-32.744-1.6-32.744-1.6,1.728-10.232,3.567-11.588S368.386,654.825,368.386,654.825Z" transform="translate(-236.19 -442.258)" fill="#f37291"/><path d="M253.438,452.191a79.418,79.418,0,0,0,15.523,6.231,154.84,154.84,0,0,0,18.287,3.957,13.3,13.3,0,0,1,10.9,10.031,8.486,8.486,0,0,1-.071,4.592c-1.939,5.8-1.546,53.676-1.546,53.676l-17.4.836s2.753-8.7-.639-13.29,2.289-38.168,2.289-38.168-6.164-2.876-24.927-3.875c-17.585,3.715-23.9-15.66-20.984-20.877S253.438,452.191,253.438,452.191Z" transform="translate(-162.316 -315.348)" fill="#96a2d0"/><g transform="translate(71.843 136.424)" opacity="0.1"><path d="M368.386,654.825l11.124,7.059s14.709,2.463,4.7,5.484-32.744-1.6-32.744-1.6,1.728-10.232,3.567-11.588S368.386,654.825,368.386,654.825Z" transform="translate(-307.895 -578.683)"/><path d="M253.438,452.191a79.418,79.418,0,0,0,15.523,6.231,154.84,154.84,0,0,0,18.287,3.957,13.3,13.3,0,0,1,10.9,10.031,8.486,8.486,0,0,1-.071,4.592c-1.939,5.8-1.546,53.676-1.546,53.676l-17.4.836s2.753-8.7-.639-13.29,2.289-38.168,2.289-38.168-6.164-2.876-24.927-3.875c-17.585,3.715-23.9-15.66-20.984-20.877S253.438,452.191,253.438,452.191Z" transform="translate(-234.188 -451.772)"/></g><path d="M353.466,664.935l11.124,7.059s14.709,2.463,4.7,5.484-32.744-1.6-32.744-1.6,1.728-10.232,3.567-11.588S353.466,664.935,353.466,664.935Z" transform="translate(-226.787 -448.612)" fill="#f37291"/><path d="M245.524,486.921c18.763,1,24.927,3.875,24.927,3.875s-1.78,32.628.743,37.377c2.694,5.038-2.408,14.081-2.408,14.081l17.4-.836v-1.575c-.052-8.315-.178-46.925,1.549-52.1a8.487,8.487,0,0,0,.071-4.592,13.309,13.309,0,0,0-10.9-10.031,153.9,153.9,0,0,1-18.287-3.953l-.286-.089a77.922,77.922,0,0,1-15.233-6.141s-11.588-.8-14.49,4.414c-.372.676-1.973,2.006-2.04,3.08C226.134,477.614,230.224,490.143,245.524,486.921Z" transform="translate(-157.489 -322.335)" fill="#96a2d0"/><path d="M351.81,441.249l.331,6.9s1.531-.041,3.812-.178c7.784-.464,24.317-2,18.7-6.613-4.83-3.964-13.338-2.7-18.491-1.412-1.891.476-3.344.951-3.975,1.178C351.94,441.2,351.81,441.249,351.81,441.249Z" transform="translate(-236.379 -306.699)" fill="#f8b9bf"/><path d="M233,290.456s2.229,1.921,4.993,4.046c3.084.84,6.688,1.586,9.262,2.081-.8-3.028-.089-6.316,1.089-9.21a34.81,34.81,0,0,1,5.038-8.363l-15.493-5.6c1.1,3.177.372,6.725-.806,9.76A32.266,32.266,0,0,1,233,290.456Z" transform="translate(-161.504 -202.586)" fill="#f8b9bf"/><path d="M352.06,445.325l.238,4.953s1.531-.041,3.812-.178l.208-8.029c-1.891.476-3.344.951-3.975,1.178Z" transform="translate(-236.5 -308.834)" opacity="0.1"/><path d="M309.62,431.162l4.745-.227.223-8.575-3.8.182Z" transform="translate(-195.075 -289.484)" fill="#d9dfe8"/><path d="M218.942,378.727c10.032,10.429,28.738-1.965,33.769-5.636.817-.6,1.274-.966,1.274-.966-1.858-1.891-4.83-3.641-5.971-8.378a102.919,102.919,0,0,1-2.207-14.683c-.308-3.92,3.741-11.384,2.571-15.107s-5.989-4.945-8.014-8.315c-.531-.877-1.059-1.7-1.579-2.422-3.738-5.2-10.251-8.705-10.251-8.705-13.877-4.737-14.966,15.081-14.62,15.7S212.674,352.675,218.942,378.727Z" transform="translate(-149.47 -228.138)" fill="#6c63ff"/><path d="M224,373.557s8.059,22.448,11.614,23.864c2.036.81,13.141-.063,22.259-.959.817-.6,1.274-.966,1.274-.966-1.858-1.891-3.37-5.789-4.507-10.522l-11.7.041s.947-6.688-.1-21.88-10.719-11.852-10.719-11.852C216.172,355.857,224,373.557,224,373.557Z" transform="translate(-154.644 -251.522)" opacity="0.1"/><path d="M309.62,431.325l2.047-.1.925-8.609-1.8.085Z" transform="translate(-195.071 -289.648)" opacity="0.1"/><path d="M232.863,348.69s9.66-3.318,10.719,11.852.111,21.88.111,21.88l28.542-.1-1.1,10.2s-31.209,3.715-34.776,2.307-11.618-23.86-11.618-23.86S216.91,353.264,232.863,348.69Z" transform="translate(-155.127 -249.89)" fill="#6c63ff"/><path d="M246.4,281.458c.516-2.229-1.858-2.3-2.6-4.458l15.5,5.573a34.7,34.7,0,0,0-3.113,4.5,13.047,13.047,0,0,1-2.519.372C249.9,287.63,248.894,283.9,246.4,281.458Z" transform="translate(-168.304 -204.829)" opacity="0.1"/><circle cx="12.989" cy="12.989" r="12.989" transform="translate(72.029 56.046) rotate(-2.75)" fill="#f8b9bf"/><path d="M253,375.14s4.109,19.465,8.962,21.453S264.614,399,264.614,399" transform="translate(-174.097 -266.697)" opacity="0.1"/><path d="M286.011,397.867s-3.433,1.074-7.431-4.057" transform="translate(-190.208 -278.417)" opacity="0.1"/><circle cx="5.945" cy="5.945" r="5.945" transform="translate(64.107 44.427)" fill="#fa595f"/><path d="M214.113,212.693a5.945,5.945,0,0,1,0-8.133c-.1.078-.193.156-.282.242a5.946,5.946,0,0,0,8.144,8.664c.093-.085.175-.178.256-.268A5.945,5.945,0,0,1,214.113,212.693Z" transform="translate(-148.234 -159.185)" fill="#fa595f"/><path d="M216.317,222.435a5.945,5.945,0,0,1-6.257-5.2v.372a5.945,5.945,0,1,0,11.867-.743,3.154,3.154,0,0,0-.041-.372A5.945,5.945,0,0,1,216.317,222.435Z" transform="translate(-147.04 -166.698)" fill="#fa595f"/><path d="M248.836,226.357a26.626,26.626,0,0,0,4.458,1.3,5.526,5.526,0,0,1,3.656,2.623c.479,1.033.424,2.255.925,3.277.721,1.486,2.385,2.17,3.916,2.753-1.315,1.765-4.139,1.286-5.982.085s-3.429-2.972-5.573-3.437a5.231,5.231,0,0,0-5.5,2.448,13.215,13.215,0,0,0-1.085,3.374c-.743,3.017-2.229,6.019-4.83,7.732s-6.476,1.7-8.516-.643a10.53,10.53,0,0,1-1.939-5,10.168,10.168,0,0,1-.286-2.53c.119-2.133,1.538-3.949,2.972-5.532,1.691-1.858,3.489-3.641,5.287-5.413,1.553-1.531,3.344-4.124,5.685-4.306C244.72,222.872,246.626,225.275,248.836,226.357Z" transform="translate(-158.419 -170.866)" opacity="0.1"/><path d="M247.836,225.357a26.63,26.63,0,0,0,4.458,1.3,5.526,5.526,0,0,1,3.656,2.623c.479,1.033.424,2.255.925,3.277.721,1.486,2.385,2.17,3.916,2.753-1.315,1.765-4.139,1.286-5.982.085s-3.429-2.972-5.573-3.437a5.231,5.231,0,0,0-5.5,2.448,13.214,13.214,0,0,0-1.085,3.374c-.743,3.017-2.229,6.019-4.83,7.732s-6.476,1.7-8.516-.643a10.53,10.53,0,0,1-1.939-5,10.17,10.17,0,0,1-.286-2.53c.119-2.133,1.538-3.949,2.972-5.532,1.691-1.858,3.489-3.641,5.287-5.413,1.553-1.531,3.344-4.124,5.685-4.306C243.72,221.872,245.626,224.275,247.836,225.357Z" transform="translate(-157.789 -170.235)" fill="#fa595f"/><rect width="42.367" height="6.547" rx="3.273" transform="translate(52.345 137.284)" fill="#d6d6e3"/><path d="M181.28,462v.516a2.694,2.694,0,0,0,2.694,2.694h36.979a2.694,2.694,0,0,0,2.694-2.694V462Z" transform="translate(-128.935 -321.378)" opacity="0.1"/><rect width="7.286" height="92.821" transform="translate(126.664 143.706)" fill="#d6d6e3"/><rect width="7.286" height="6.019" transform="translate(126.664 144.081)" opacity="0.1"/><rect width="122.344" height="12.038" transform="translate(122.83 137.439)" fill="#d6d6e3"/></g><g transform="translate(1240.673 31.525)"><path d="M311.421,121.491c-10.685,13.071-7.981,31.238-2.6,45.628,1.811,4.817,3.858,9.908,2.642,15.232-1.488,6.511-7.554,11.526-13.773,14.333-11.332,5.12-24.486,4.7-34.245-1.092-8.434-5.006-14.166-13.548-22.773-18.309-14.386-7.938-33.6-3.691-50.184,3.131-11.736,4.821-24.621,10.97-35.744,7.113-7.826-2.715-12.9-10.025-15.418-17.919-1.216-3.811-2.013-7.963-4.606-10.9a16.866,16.866,0,0,0-5.768-3.921c-19.593-8.994-45.443-2.346-64.4-12.46-12.792-6.818-20.4-20.527-23.244-35.079s-1.441-30.03.458-45.262c1.348-10.823,3.281-22.4,10.706-31.078C60.326,21.728,73.066,17.82,84.3,18.921s21.117,6.551,29.716,13.132c10.747,8.207,20.54,18.616,34.186,21.465,9.293,1.947,19.308.12,29.075-.842,16.329-1.589,32.511-.7,48.585.345,15.39,1.006,30.878,2.186,45.332,6.475,10.227,3.035,18.2,9.078,27.791,13.1,6.25,2.62,13.211,3.079,19.067,6.524,7.215,4.24,13.591,11.93,11.084,21.431C326.754,109.6,317.091,114.546,311.421,121.491Z" transform="translate(-39.693 27.506)" fill="#6c63ff" opacity="0.1"/><rect width="15.192" height="22.998" transform="translate(182.958 15.976)" fill="#6c63ff" opacity="0.1"/><rect width="12.238" height="18.525" transform="translate(184.41 18.213)" fill="#6c63ff" opacity="0.1"/><rect width="23.333" height="22.998" transform="translate(150.875)" fill="#6c63ff" opacity="0.1"/><rect width="18.796" height="18.525" transform="translate(153.127 2.237)" fill="#6c63ff" opacity="0.1"/><rect width="7.286" height="81.419" transform="translate(113.86 140.226)" fill="#d6d6e3"/><path d="M937.8,353.994v-75.1A7.9,7.9,0,0,1,945.7,271h0a7.9,7.9,0,0,1,7.88,7.891v90.893a7.9,7.9,0,0,1-7.9,7.9h-48.9a7.9,7.9,0,0,1-7.9-7.9h0a7.9,7.9,0,0,1,7.9-7.9h33.123A7.9,7.9,0,0,0,937.8,353.994Z" transform="translate(-699.732 -210.435)" fill="#aebee1"/><path d="M937.8,353.994v-75.1A7.9,7.9,0,0,1,945.7,271h0a7.9,7.9,0,0,1,7.88,7.891v90.893a7.9,7.9,0,0,1-7.9,7.9h-48.9a7.9,7.9,0,0,1-7.9-7.9h0a7.9,7.9,0,0,1,7.9-7.9h33.123A7.9,7.9,0,0,0,937.8,353.994Z" transform="translate(-699.732 -210.435)" fill="#535461"/><path d="M888.92,369.361a7.9,7.9,0,0,1,7.884-7.472h33.123a7.9,7.9,0,0,0,7.9-7.9v-75.1A7.9,7.9,0,0,1,945.338,271v98.361Z" transform="translate(-702.254 -210.756)" fill="#d6d6e3"/><rect width="7.286" height="83.318" transform="translate(156.552 140.226)" fill="#d6d6e3"/><rect width="7.286" height="6.019" transform="translate(113.86 136.219)" opacity="0.1"/><rect width="7.286" height="6.019" transform="translate(156.552 136.219)" opacity="0.1"/><path d="M685.309,378.454a2.248,2.248,0,0,0,2.107,2.4h22.248v-2.318H691.139a1.163,1.163,0,0,1-.9-1.739l16.779-34.126a1.486,1.486,0,0,1,1.3-.84h8.3v-3.9H706.153a1.04,1.04,0,0,0-.9.583l-19.235,37.154A6.317,6.317,0,0,0,685.309,378.454Z" transform="translate(-579.137 -252.814)" fill="#535461"/><path d="M776.456,313.314l.3.513,2.85-1.9-8.817-67.795h-2.27s-.093.312-.245.907C766.755,250.9,759.276,284.078,776.456,313.314Z" transform="translate(-628.364 -195.358)" fill="#535461"/><path d="M773.23,245.037l8.174,68.278.3.513,2.85-1.9-8.813-67.795h-2.27S773.382,244.453,773.23,245.037Z" transform="translate(-633.247 -195.358)" opacity="0.1"/><rect width="5.387" height="70.329" transform="translate(140.249 48.674) rotate(-6.83)" fill="#d6d6e3"/><path d="M860,446a.639.639,0,0,0,.635.635h.951a.635.635,0,0,0,.635-.635.309.309,0,0,0,0-.074.635.635,0,0,0-.628-.557h-.951a.639.639,0,0,0-.613.483A.589.589,0,0,0,860,446Z" transform="translate(-686.526 -319.376)" fill="#e3edf9"/><path d="M852.328,446a.639.639,0,0,0,.635.635h.951a.635.635,0,0,0,.635-.635.626.626,0,0,0-.026-.175.6.6,0,0,0-.16-.271.62.62,0,0,0-.446-.186h-.97a.639.639,0,0,0-.583.372A.654.654,0,0,0,852.328,446Z" transform="translate(-681.833 -319.376)" fill="#e3edf9"/><path d="M845.51,446a.639.639,0,0,0,.635.635h.951a.635.635,0,0,0,.635-.635.6.6,0,0,0-.056-.264.647.647,0,0,0-.576-.372h-.951a.632.632,0,0,0-.635.635Z" transform="translate(-677.663 -319.37)" fill="#e3edf9"/><path d="M837.83,446a.639.639,0,0,0,.635.635h.951a.635.635,0,0,0,.52-1l-.074-.082a.62.62,0,0,0-.446-.186h-.951a.638.638,0,0,0-.461.2A.613.613,0,0,0,837.83,446Z" transform="translate(-672.966 -319.376)" fill="#e3edf9"/><path d="M860.019,446.66a.588.588,0,0,0-.019.152.639.639,0,0,0,.635.635h.951a.635.635,0,0,0,.635-.635.309.309,0,0,0,0-.074Z" transform="translate(-686.526 -320.177)" opacity="0.1"/><path d="M852.382,446.39a.653.653,0,0,0-.052.249.639.639,0,0,0,.635.635h.951a.635.635,0,0,0,.635-.635.622.622,0,0,0-.026-.175Z" transform="translate(-681.835 -320.009)" opacity="0.1"/><path d="M845.6,446.16a.634.634,0,0,0,.539.97h.951a.635.635,0,0,0,.635-.635.6.6,0,0,0-.056-.264Z" transform="translate(-677.657 -319.866)" opacity="0.1"/><path d="M837.83,446.341a.639.639,0,0,0,.635.635h.951a.635.635,0,0,0,.52-1L838,445.91a.613.613,0,0,0-.175.431Z" transform="translate(-672.966 -319.711)" opacity="0.1"/><path d="M822.484,449.193h18.373v-.836a1.431,1.431,0,0,0-1.382-1.43l-14.735-.509a2.185,2.185,0,0,0-2.259,2.181Z" transform="translate(-663.148 -319.979)" fill="#d6d6e3"/><path d="M875.25,311.869c8.571-15.318,5.465-46.217,5.811-46.808.308-.521-.873-15.071-8.75-18.626-1.423-2.971-2.824-6.318-2.824-6.318a2.515,2.515,0,0,1-.453.356q-.093-.266-.182-.54c-.1-.309-.193-.626-.286-.943a5.533,5.533,0,0,0,.672.18,2.67,2.67,0,0,0,1.8-.168,2.017,2.017,0,0,0,.516-.419,4.141,4.141,0,0,0,1.252-1.957l2.292-5.786a46.684,46.684,0,0,0,2.623-8.006,23.684,23.684,0,0,0-.914-12.472,7.981,7.981,0,0,0-2.567-3.946c-2.552-1.824-6.1-.564-9.021-1.632-.958-.352-1.824-.947-2.783-1.307a8.165,8.165,0,0,0-6.4.611A30.465,30.465,0,0,0,850.692,208c-.858.693-2.229,1.409-3.24,2.349a3.487,3.487,0,0,0-1.59,3.065c.163,1.468,1.631,2.349,3,2.693.227.055.461.1.691.141a14.616,14.616,0,0,0-3.435,13.408,13.79,13.79,0,0,0,9.146,10,33.909,33.909,0,0,1,1.806,4.279q.1.3.2.607a22.4,22.4,0,0,0-4.366,1.542c-1.066.932,1.167,9.09,1.167,9.09-.568.759-1.148,1.625-1.735,2.552A56.9,56.9,0,0,0,844.1,281.44c-.372,3.1-.854,6.263-1.468,9.274L816,285.088l-.056.693-.635-.164h0l-2-.521-.078.474-.3-.153c-4.953-2.447-13.3-5.571-18.948-2.349-5.963,3.382,6.907,7.876,15.166,10.268a12.95,12.95,0,0,0-7.431,2.455c-5.989,4.729,10.949,7.191,18.948,8.064l.323.035v.18l2.772.27.65.063.063,1.041s3.968.685,9.27,1.515a154.188,154.188,0,0,1-18.725,3.343,13.921,13.921,0,0,0-11.674,10.354,9.683,9.683,0,0,0-.134,4.979c1.546,5.688-.342,47.532-.769,56.544l-9.79,5.939s-15.233,1.957-5.086,5.719a20.012,20.012,0,0,0,2.8.783c-1.338.908-1.222,2.094,2.72,3.551,10.154,3.75,33.758-.164,33.758-.164s-.516-4.408-1.356-8.072l.26.023s-2.437-9.556,1.26-14.375-.62-41.5-.62-41.5,6.472-2.823,25.818-3.006c15.6,4.22,23.21-10.887,23.1-18.7A4.379,4.379,0,0,1,875.25,311.869Z" transform="translate(-636.802 -172.541)" fill="url(#b)"/><path d="M833.762,410.925l-1.653,6.688s-1.486-.334-3.715-.907c-7.55-1.954-23.474-6.647-17.091-10.091,5.5-2.972,13.606-.082,18.417,2.173,1.761.829,3.084,1.572,3.675,1.921C833.643,410.851,833.762,410.925,833.762,410.925Z" transform="translate(-655.267 -294.646)" fill="#f8b9bf"/><path d="M864.7,418.684l-1.189,4.83s-1.486-.334-3.715-.907l1.341-7.918c1.761.829,3.084,1.572,3.674,1.921Z" transform="translate(-686.327 -300.435)" opacity="0.1"/><path d="M825.5,404.7l-4.615-1.141,1.434-8.456,3.689.91Z" transform="translate(-647.107 -281.158)" fill="#d9dfe8"/><path d="M829.942,405.508l-1.992-.49.751-8.627,1.75.431Z" transform="translate(-651.497 -281.957)" opacity="0.1"/><path d="M915.072,343.939s-8.861-5.12-12.8,9.567-4.31,21.453-4.31,21.453l-27.984-5.6-.888,10.221s29.92,9.66,33.684,8.958,15.976-21.178,15.976-21.178S929.852,351.5,915.072,343.939Z" transform="translate(-690.325 -255.875)" fill="#6c63ff"/><g transform="translate(156.415 87.592)" opacity="0.1"><path d="M833.762,410.925l-1.653,6.688s-1.486-.334-3.715-.907c-7.55-1.954-23.474-6.647-17.091-10.091,5.5-2.972,13.606-.082,18.417,2.173,1.761.829,3.084,1.572,3.675,1.921C833.643,410.851,833.762,410.925,833.762,410.925Z" transform="translate(-809.826 -382.582)"/><path d="M864.7,418.684l-1.189,4.83s-1.486-.334-3.715-.907l1.341-7.918c1.761.829,3.084,1.572,3.674,1.921Z" transform="translate(-841.233 -388.454)" opacity="0.1"/><path d="M825.5,404.7l-4.615-1.141,1.434-8.456,3.689.91Z" transform="translate(-802.029 -369.18)"/><path d="M829.942,405.508l-1.992-.49.751-8.627,1.75.431Z" transform="translate(-806.466 -369.99)" opacity="0.1"/><path d="M915.072,344.939s-8.861-5.12-12.8,9.567-4.31,21.453-4.31,21.453l-27.984-5.6-.888,10.221s29.92,9.66,33.684,8.958,15.976-21.178,15.976-21.178S929.852,352.5,915.072,344.939Z" transform="translate(-847.071 -344.075)"/></g><path d="M807.736,650.568l-11.425,6.58s-14.8,1.813-4.941,5.268,32.785-.152,32.785-.152-1.274-10.3-3.05-11.737S807.736,650.568,807.736,650.568Z" transform="translate(-641.59 -443.342)" fill="#68739d"/><path d="M882.3,452.713a79.52,79.52,0,0,1-15.783,5.54,158.172,158.172,0,0,1-18.447,3.143,13.3,13.3,0,0,0-11.339,9.523,8.487,8.487,0,0,0-.13,4.607c1.683,5.881-.828,53.691-.828,53.691l17.351,1.605s-2.367-8.809,1.226-13.249-.6-38.235-.6-38.235,6.286-2.6,25.071-2.772c17.4,4.458,24.574-14.59,21.887-19.929S882.3,452.713,882.3,452.713Z" transform="translate(-669.587 -319.312)" fill="#6394e2"/><g transform="translate(148.132 133.23)" opacity="0.1"><path d="M807.736,650.568l-11.425,6.58s-14.8,1.813-4.941,5.268,32.785-.152,32.785-.152-1.274-10.3-3.05-11.737S807.736,650.568,807.736,650.568Z" transform="translate(-787.982 -576.573)"/><path d="M882.3,452.713a79.52,79.52,0,0,1-15.783,5.54,158.172,158.172,0,0,1-18.447,3.143,13.3,13.3,0,0,0-11.339,9.523,8.487,8.487,0,0,0-.13,4.607c1.683,5.881-.828,53.691-.828,53.691l17.351,1.605s-2.367-8.809,1.226-13.249-.6-38.235-.6-38.235,6.286-2.6,25.071-2.772c17.4,4.458,24.574-14.59,21.887-19.929S882.3,452.713,882.3,452.713Z" transform="translate(-818.015 -452.543)"/></g><path d="M822.161,661.318l-11.425,6.58s-14.795,1.8-4.941,5.268,32.785-.152,32.785-.152-1.274-10.3-3.05-11.737S822.161,661.318,822.161,661.318Z" transform="translate(-650.381 -450.098)" fill="#68739d"/><path d="M893.187,487.3c-18.785.171-25.071,2.772-25.071,2.772s4.195,33.81.6,38.235-1.226,13.249-1.226,13.249l-17.351-1.605s.03-.565.078-1.575c.416-8.308,2.248-46.873.743-52.116a8.486,8.486,0,0,1,.13-4.592,13.308,13.308,0,0,1,11.336-9.545,153.693,153.693,0,0,0,18.443-3.143l.29-.074a78.839,78.839,0,0,0,15.493-5.465s15.72-1.412,18.406,3.927a6.315,6.315,0,0,1,.55,2.694C915.743,477.269,908.349,491.195,893.187,487.3Z" transform="translate(-678.304 -326.057)" fill="#6394e2"/><path d="M854.907,437.391l-.635,6.873s-1.527-.108-3.8-.345c-7.754-.806-24.2-3.073-18.387-7.431,5-3.745,13.442-2.11,18.536-.594,1.858.557,3.284,1.1,3.92,1.352C854.777,437.336,854.907,437.391,854.907,437.391Z" transform="translate(-668.103 -312.326)" fill="#f8b9bf"/><path d="M986.2,292.673s-2.326,1.821-5.168,3.819c-3.117.706-6.736,1.289-9.344,1.668.932-2.972.372-6.316-.68-9.248a34.811,34.811,0,0,0-4.663-8.575l15.723-4.908c-1.234,3.125-.676,6.688.372,9.786A32.268,32.268,0,0,0,986.2,292.673Z" transform="translate(-750.932 -215.149)" fill="#f8b9bf"/><path d="M887.894,442.187l-.457,4.938s-1.527-.108-3.8-.346l.149-8.029c1.858.557,3.284,1.1,3.92,1.352Z" transform="translate(-700.927 -315.15)" opacity="0.1"/><path d="M849.513,428.083l-4.733-.438.156-8.575,3.786.349Z" transform="translate(-661.726 -295.819)" fill="#d9dfe8"/><path d="M994.082,309.2s-2.326,1.821-5.168,3.819c-3.117.706-6.736,1.289-9.344,1.668.932-2.972.371-6.316-.68-9.248,3.842-1.115,9.337-2.556,11.436-3.715A32.273,32.273,0,0,0,994.082,309.2Z" transform="translate(-758.774 -231.339)" opacity="0.1"/><path d="M983.614,302.22s2.63,5.971,4.288,8.668-19.253,5.2-19.253,5.2-2.17-7.516-1.133-8.378S981.864,303.966,983.614,302.22Z" transform="translate(-751.443 -231.63)" fill="#d9dfe8"/><path d="M968.134,470.069a18.811,18.811,0,0,1-3.255,4.213c-9.236,8.776-24.377-.372-31.209-5.372a78.848,78.848,0,0,0,15.493-5.465s15.72-1.412,18.406,3.927a6.318,6.318,0,0,1,.565,2.7Z" transform="translate(-730.425 -329.959)" opacity="0.1"/><path d="M959.094,381.071c-10.5,9.972-28.609-3.232-33.49-7.122-.791-.632-1.234-1.022-1.234-1.022,1.928-1.806,3.622-5.633,4.964-10.314a90.516,90.516,0,0,0,2.7-13.665,50.714,50.714,0,0,1,8-21.858c.568-.854,1.115-1.653,1.683-2.352,3.964-5.042,10.626-8.244,10.626-8.244,14.059-4.109,15.95,16.745,15.575,17.347S971.3,369.475,959.094,381.071Z" transform="translate(-724.368 -238.785)" fill="#6c63ff"/><path d="M960.454,375.536s-9.04,22.069-12.655,23.329c-2.07.717-13.123-.643-22.2-1.939-.791-.632-1.234-1.022-1.234-1.022,1.928-1.806,3.622-5.633,4.964-10.314l11.685.557s-.65-6.74,1.066-21.854,11.232-11.369,11.232-11.369C969.059,358.2,960.454,375.536,960.454,375.536Z" transform="translate(-724.596 -261.58)" opacity="0.1"/><path d="M853.146,428.4l-2.043-.19-.542-8.638,1.795.163Z" transform="translate(-665.324 -296.129)" opacity="0.1"/><path d="M932.646,350.306s-9.515-3.741-11.232,11.369-1.066,21.854-1.066,21.854l-28.508-1.364.643,10.24s31.027,5.094,34.642,3.838,12.655-23.329,12.655-23.329S948.373,355.574,932.646,350.306Z" transform="translate(-704.299 -259.99)" fill="#6c63ff"/><path d="M981.513,283.414c-.416-2.259,1.943-2.229,2.79-4.354l-15.724,4.908a34.717,34.717,0,0,1,2.913,4.633,13.045,13.045,0,0,0,2.5.483C977.742,289.441,978.913,285.751,981.513,283.414Z" transform="translate(-752.457 -217.537)" opacity="0.1"/><circle cx="12.989" cy="12.989" r="12.989" transform="translate(207.834 68.307) rotate(-84.72)" fill="#f8b9bf"/><path d="M949.57,220.333c.16,1.352,1.587,2.177,2.913,2.482s2.764.32,3.927,1.029c1.858,1.144,2.359,3.686,2.125,5.87-.13,1.234-.316,2.746.695,3.463a2.693,2.693,0,0,0,1.04.372,9.757,9.757,0,0,0,3.2.111,4.554,4.554,0,0,1,1.858-.048,2.827,2.827,0,0,1,1.739,2.3c.189.992.085,2.025.238,3.024a6.279,6.279,0,0,0,4.949,5.1,2.723,2.723,0,0,0,1.746-.156,3.49,3.49,0,0,0,1.371-1.9l2.229-5.335a41.557,41.557,0,0,0,2.549-7.379,20.775,20.775,0,0,0-.888-11.5,7.367,7.367,0,0,0-2.493-3.637c-2.478-1.683-5.945-.52-8.761-1.486-.933-.323-1.772-.873-2.7-1.2a8.319,8.319,0,0,0-6.216.565,29.4,29.4,0,0,0-5.2,3.622C952.416,216.781,949.292,218,949.57,220.333Z" transform="translate(-740.247 -175.806)" opacity="0.1"/><path d="M950.491,219.563c.16,1.352,1.586,2.177,2.913,2.482s2.764.32,3.927,1.029c1.858,1.144,2.359,3.686,2.125,5.87-.13,1.234-.316,2.746.695,3.463a2.694,2.694,0,0,0,1.04.372,9.757,9.757,0,0,0,3.2.111,4.554,4.554,0,0,1,1.858-.048,2.827,2.827,0,0,1,1.739,2.3c.19.992.085,2.025.238,3.024a6.279,6.279,0,0,0,4.949,5.1,2.723,2.723,0,0,0,1.746-.156,3.491,3.491,0,0,0,1.371-1.9l2.229-5.335a41.577,41.577,0,0,0,2.549-7.379,20.777,20.777,0,0,0-.888-11.5,7.367,7.367,0,0,0-2.493-3.637c-2.478-1.683-5.945-.52-8.761-1.486-.933-.323-1.772-.873-2.7-1.2a8.319,8.319,0,0,0-6.216.565,29.4,29.4,0,0,0-5.2,3.622C953.341,216.011,950.216,217.226,950.491,219.563Z" transform="translate(-740.808 -177.088)" fill="#b96b6b"/><path d="M957.263,373.34s-4.96,19.268-9.9,21.051-2.757,2.289-2.757,2.289" transform="translate(-737.614 -274.848)" opacity="0.1"/><rect width="5.391" height="35.434" transform="translate(214.592 174.389)" fill="#d6d6e3"/><rect width="5.391" height="2.627" transform="translate(214.592 171.842)" opacity="0.1"/><path d="M936.57,559.873v.743a1.743,1.743,0,0,0,1.743,1.743h23.474a1.743,1.743,0,0,0,1.743-1.743v-.743a1.743,1.743,0,0,0-1.743-1.743H938.313A1.743,1.743,0,0,0,936.57,559.873Z" transform="translate(-732.491 -388.25)" fill="#d6d6e3"/><path d="M937.65,558.765h26.16a1.735,1.735,0,0,0-1.345-.635H938.991A1.736,1.736,0,0,0,937.65,558.765Z" transform="translate(-733.181 -388.37)" opacity="0.1"/><rect width="44.291" height="4.236" rx="2.118" transform="translate(195.674 207.894)" fill="#d6d6e3"/><circle cx="2.697" cy="2.697" r="2.697" transform="translate(237.302 212.129)" fill="#535461"/><circle cx="2.697" cy="2.697" r="2.697" transform="translate(194.05 212.129)" fill="#535461"/><circle cx="2.697" cy="2.697" r="2.697" transform="translate(214.593 212.129)" fill="#535461"/><rect width="42.367" height="6.547" rx="3.273" transform="translate(214.627 126.442)" fill="#d6d6e3"/><path d="M970.991,653.5s-2.118,2.092-5.391,0" transform="translate(-751.008 -445.606)" opacity="0.1"/><path d="M999.807,455.17v.516a2.694,2.694,0,0,1-2.694,2.694H960.134a2.694,2.694,0,0,1-2.694-2.694v-.516Z" transform="translate(-742.813 -325.321)" opacity="0.1"/><rect width="7.286" height="92.833" transform="translate(174.446 140.226)" fill="#d6d6e3"/><rect width="7.286" height="6.019" transform="translate(174.446 136.219)" opacity="0.1"/><rect width="7.286" height="92.821" transform="translate(95.966 140.226)" fill="#d6d6e3"/><rect width="7.286" height="6.019" transform="translate(95.966 136.219)" opacity="0.1"/><rect width="89.277" height="12.038" transform="translate(94.092 129.421)" fill="#d6d6e3"/></g><g transform="translate(684.673 99.675)"><path d="M867.5,707.622H852V698.89h15.5Zm-14.844-.655h14.189v-7.422H852.655Z" transform="translate(-720.516 -562.23)" fill="#6c63ff" opacity="0.2"/><path d="M351.5,707.622H336V698.89h15.5Zm-14.844-.655h14.189v-7.422H336.655Z" transform="translate(-316.752 -562.23)" fill="#6c63ff" opacity="0.2"/><g transform="translate(16.998 35.759)" opacity="0.7"><path d="M391.112,669.239s-18.913-6.915-21.5,2.818l7.254,18.439.777,11.788h15.8v-10s-2.331-9.989,3.628-16.134Z" transform="translate(-360.023 -572.947)" fill="url(#c)"/><g transform="translate(17.671 41.127)" opacity="0.1"><path d="M423.228,425.349a2.6,2.6,0,0,0-2.425.026,6.115,6.115,0,0,0-.838,1.192c-.98,1.286-2.956,1.046-4.516,1.506-2.294.677-3.711,2.949-4.523,5.176-3.593,9.823.413,21.058-2.716,31.034-.921,2.936-2.427,6.2-.939,8.9a11.758,11.758,0,0,1,1.55,2.648c.336,1.351-.312,3.124.821,3.947a3.356,3.356,0,0,0,1.225.437c2.55.672,4.482,2.657,6.424,4.42s4.279,3.471,6.913,3.355a11.254,11.254,0,0,0,2.506-.5l13.076-3.641a5.9,5.9,0,0,0,3.493-1.923,5.487,5.487,0,0,0,.729-2.34,61.652,61.652,0,0,0,.64-9.371,8.121,8.121,0,0,0-.437-3.056,19.641,19.641,0,0,0-1.945-3.015,16.289,16.289,0,0,1-1.86-6.61c-.482-3.639-.965-7.35-.3-10.96.286-1.55.779-3.056,1.107-4.6a21.8,21.8,0,0,0,.249-7.625,10.845,10.845,0,0,0-2.4-5.828,6.093,6.093,0,0,0-3.624-1.965c-1.768-.218-2.648.8-4.224,1.179C428.884,428.32,425.47,426.089,423.228,425.349Z" transform="translate(-406.643 -425.058)" fill="url(#d)"/></g><path d="M423.228,422.959a2.6,2.6,0,0,0-2.425.026,6.118,6.118,0,0,0-.838,1.192c-.98,1.286-2.956,1.046-4.516,1.506-2.294.677-3.711,2.949-4.523,5.176-3.593,9.823.413,21.058-2.716,31.034-.921,2.936-2.427,6.2-.939,8.9a11.758,11.758,0,0,1,1.55,2.648c.336,1.351-.312,3.124.821,3.947a3.358,3.358,0,0,0,1.225.437c2.55.672,4.482,2.657,6.424,4.42s4.274,3.49,6.913,3.368a11.254,11.254,0,0,0,2.506-.5l13.076-3.641a5.9,5.9,0,0,0,3.493-1.923,5.486,5.486,0,0,0,.729-2.34,61.651,61.651,0,0,0,.64-9.371,8.121,8.121,0,0,0-.437-3.056,19.638,19.638,0,0,0-1.945-3.015,16.289,16.289,0,0,1-1.86-6.61c-.482-3.639-.965-7.35-.3-10.96.286-1.55.779-3.056,1.107-4.6a21.8,21.8,0,0,0,.249-7.625,10.845,10.845,0,0,0-2.4-5.828,6.093,6.093,0,0,0-3.624-1.965c-1.768-.218-2.648.8-4.224,1.179C428.884,425.928,425.47,423.71,423.228,422.959Z" transform="translate(-388.972 -382.063)" fill="url(#d)"/><path d="M453.685,334.945s.26,9.731-2.849,9.476,8.8,16.134,8.8,16.134l10.1-5.379s-5.955-9.474-1.807-15.365S453.685,334.945,453.685,334.945Z" transform="translate(-423.114 -313.436)" fill="url(#f)"/><g transform="translate(1.513 37.032)" opacity="0.1"><path d="M344.321,473.5s-2.072,14.086-7.254,10.244-4.405-10.244-4.405-10.244,10.1-27.147,9.587-31.246S359.494,406.3,359.494,406.3l6.579,52.344S346.392,465.815,344.321,473.5Z" transform="translate(-332.62 -406.3)" fill="url(#g)"/></g><path d="M341.951,473.5s-2.072,14.086-7.254,10.244-4.405-10.244-4.405-10.244,10.1-27.147,9.585-31.246S357.122,406.3,357.122,406.3l6.579,52.344S344.022,465.815,341.951,473.5Z" transform="translate(-329.255 -369.268)" fill="url(#g)"/><path d="M356.779,363.35s-10.1,6.909-13.995,6.658l-3.019.821a16.57,16.57,0,0,0-11.958,12.763l-.048.245c-1.55,8.2-2.069,30.735-2.069,30.735s.26,5.894,2.849,7.422l16.59,11.268s-.517-12.292,5.7-13.573-1.554-.513-1.554-.513l-11.4-6.658s.26-9.989,3.368-13.316,13.99-20.738,13.99-20.738l-3.108-10.755Z" transform="translate(-325.69 -335.694)" fill="url(#i)"/><g transform="translate(40.723 34.314)" opacity="0.1"><path d="M513.751,393.85s6.363,1.666,10.818,2.48a4.484,4.484,0,0,1,3.239,2.445c1.345,2.774,3.394,7.793,3.041,11.978l3.886,15.11,11.133,13.316-10.1,4.612-11.395-12.549,9.325,23.818-17.358.768s-5.182-38.419-3.886-44.817Z" transform="translate(-512.246 -393.85)" fill="url(#j)"/></g><path d="M516.129,393.85s6.363,1.666,10.818,2.48a4.484,4.484,0,0,1,3.239,2.445c1.345,2.774,3.394,7.793,3.041,11.978l3.885,15.11,11.133,13.316-10.1,4.61-11.4-12.55,9.334,23.82-17.359.768s-5.182-38.419-3.886-44.817Z" transform="translate(-473.383 -359.536)" fill="url(#g)"/><path d="M339.691,288.72l3.571,17.334L337.434,309l-3.194-15.614Z" transform="translate(-309.453 -261.88)" fill="url(#i)"/><path d="M404.05,334.1l2.72-11.142,3.5,6.531-1.814,5.379Z" transform="translate(-364.024 -288.646)" fill="url(#i)"/><path d="M554.15,460.14s0,17.415,2.331,18.694" transform="translate(-504.279 -411.355)" opacity="0.1" fill="url(#i)"/><path d="M386.274,480.08s-5.377,17.151-3.855,18.948" transform="translate(-369.823 -426.943)" opacity="0.1" fill="url(#o)"/><path d="M396.31,588s10.365,6.7,11.788,6.806" transform="translate(-380.894 -511.305)" opacity="0.1" fill="url(#p)"/><g transform="translate(30.729 22.465)" opacity="0.1"><path d="M466.56,339.637s.039,1.5-.1,3.3a11.923,11.923,0,0,0,10.98,7.2,12.133,12.133,0,0,0,1.91-.153,8.785,8.785,0,0,1,1.458-5.481C484.954,338.613,466.56,339.637,466.56,339.637Z" transform="translate(-466.46 -339.569)" fill="url(#q)"/></g><ellipse cx="11.916" cy="11.781" rx="11.916" ry="11.781" transform="translate(29.535 8.449)" fill="url(#i)"/><g transform="translate(24.111 0.257)" opacity="0.1"><path d="M461.044,252.851c1.443.192,3.274-.284,3.56-1.7.351-1.786-2.065-2.947-2.438-4.73-.14-.668.026-1.366-.055-2.045a5,5,0,0,0-2.417-3.213,18.745,18.745,0,0,0-12.36-3.257,2.762,2.762,0,0,0-1.528.48,5.788,5.788,0,0,0-.984,1.528c-1.118,1.786-3.628,2-5.429,3.108a7.689,7.689,0,0,0-3.244,6.311,22.729,22.729,0,0,0,1.31,7.219,16.421,16.421,0,0,0,2.528,5.7,5.716,5.716,0,0,0,5.531,2.294c-.941-.67-.258-2.227.762-2.772s2.286-.64,3.157-1.393a5.786,5.786,0,0,0,1.417-3.108,8.091,8.091,0,0,1,1.921-3.883C454.829,251.373,458.529,252.517,461.044,252.851Z" transform="translate(-436.141 -237.83)" fill="url(#s)"/></g><path d="M459.855,251.676c1.443.192,3.274-.284,3.56-1.7.351-1.786-2.065-2.947-2.438-4.73-.14-.668.026-1.367-.055-2.045a5,5,0,0,0-2.416-3.213,18.744,18.744,0,0,0-12.351-3.259,2.762,2.762,0,0,0-1.528.48,5.785,5.785,0,0,0-.984,1.528c-1.118,1.786-3.628,2-5.429,3.108a7.689,7.689,0,0,0-3.244,6.311,22.727,22.727,0,0,0,1.31,7.219,16.419,16.419,0,0,0,2.528,5.7,5.716,5.716,0,0,0,5.531,2.294c-.941-.67-.258-2.227.762-2.772s2.285-.64,3.156-1.393a5.787,5.787,0,0,0,1.417-3.108,8.091,8.091,0,0,1,1.921-3.883C453.647,250.2,457.347,251.34,459.855,251.676Z" transform="translate(-411.108 -236.655)" fill="url(#t)"/><g transform="translate(35.623 20.872)" opacity="0.1"><path d="M492.648,333.217a15.468,15.468,0,0,1-1.294,4.658,37.259,37.259,0,0,0-2.473,5.4h0a86.561,86.561,0,0,1,7.2,6.147,5.658,5.658,0,0,0,5.942,1.439,3.787,3.787,0,0,0,2.665-2.977,9.681,9.681,0,0,0-.607-5.713,4.246,4.246,0,0,1-.018-3.493,1.386,1.386,0,0,1,.622-.777s-4.663-1.024-4.922.255-3.886,2.561-4.663.255l-.218-5.082a1.118,1.118,0,0,0-1.122-1.065h0A1.118,1.118,0,0,0,492.648,333.217Z" transform="translate(-488.88 -332.27)" fill="url(#u)"/></g><path d="M492.648,334.4a15.468,15.468,0,0,1-1.294,4.658,37.256,37.256,0,0,0-2.473,5.4h0a86.565,86.565,0,0,1,7.2,6.147,5.658,5.658,0,0,0,5.942,1.439,3.787,3.787,0,0,0,2.665-2.978,9.681,9.681,0,0,0-.607-5.713,4.246,4.246,0,0,1-.018-3.493,1.387,1.387,0,0,1,.622-.777s-4.663-1.024-4.922.255-3.886,2.561-4.663.255l-.218-5.082a1.118,1.118,0,0,0-1.122-1.065h0A1.118,1.118,0,0,0,492.648,334.4Z" transform="translate(-453.257 -312.32)" fill="url(#v)"/></g><path d="M395.352,668.716S377.2,662,374.71,671.451l6.963,17.9.74,11.454h15.171v-9.7s-2.237-9.7,3.493-15.669Z" transform="translate(-347.097 -536.834)" fill="#535461"/><path d="M426.2,431.882a2.473,2.473,0,0,0-2.327.026,5.98,5.98,0,0,0-.805,1.157c-.941,1.249-2.838,1.015-4.335,1.463-2.2.655-3.56,2.864-4.342,5.021-3.449,9.537.4,20.452-2.606,30.137-.873,2.851-2.329,6.016-.9,8.638a11.684,11.684,0,0,1,1.489,2.572c.323,1.31-.3,3.034.788,3.833a3.461,3.461,0,0,0,1.174.437c2.447.655,4.3,2.58,6.167,4.294s4.108,3.37,6.636,3.259a10.7,10.7,0,0,0,2.4-.482l12.552-3.536a5.677,5.677,0,0,0,3.355-1.869,5.462,5.462,0,0,0,.7-2.272,60.562,60.562,0,0,0,.613-9.1,8.046,8.046,0,0,0-.415-2.967,20.644,20.644,0,0,0-1.869-2.93,15.943,15.943,0,0,1-1.786-6.42c-.463-3.534-.926-7.138-.286-10.644.275-1.5.749-2.967,1.063-4.462a21.411,21.411,0,0,0,.24-7.4,10.617,10.617,0,0,0-2.3-5.66,5.831,5.831,0,0,0-3.48-1.908c-1.7-.218-2.543.777-4.056,1.146C431.63,434.756,428.351,432.6,426.2,431.882Z" transform="translate(-374.937 -353.182)" opacity="0.1"/><path d="M426.2,429.6a2.473,2.473,0,0,0-2.327.026,5.98,5.98,0,0,0-.805,1.157c-.941,1.249-2.838,1.015-4.335,1.463-2.2.655-3.56,2.864-4.342,5.021-3.449,9.537.4,20.452-2.606,30.137-.873,2.851-2.329,6.016-.9,8.638a11.683,11.683,0,0,1,1.489,2.571c.323,1.31-.3,3.034.788,3.833a3.46,3.46,0,0,0,1.174.437c2.447.655,4.3,2.58,6.167,4.294s4.108,3.37,6.636,3.259a10.7,10.7,0,0,0,2.4-.482l12.554-3.534a5.677,5.677,0,0,0,3.355-1.868,5.462,5.462,0,0,0,.7-2.272,60.554,60.554,0,0,0,.613-9.1,8.046,8.046,0,0,0-.415-2.967,20.641,20.641,0,0,0-1.869-2.929,15.943,15.943,0,0,1-1.786-6.42c-.463-3.534-.926-7.138-.286-10.644.275-1.5.749-2.967,1.063-4.462a21.411,21.411,0,0,0,.24-7.4,10.617,10.617,0,0,0-2.3-5.66,5.831,5.831,0,0,0-3.473-1.914c-1.7-.218-2.543.777-4.056,1.146C431.63,432.479,428.351,430.322,426.2,429.6Z" transform="translate(-374.937 -351.397)" fill="#e0e0e0"/><path d="M455.427,344.091s.249,9.45-2.735,9.2,8.457,15.669,8.457,15.669l9.7-5.224s-5.719-9.2-1.746-14.922S455.427,344.091,455.427,344.091Z" transform="translate(-407.713 -284.582)" fill="#fda57d"/><path d="M350.439,478.638s-1.989,13.678-6.964,9.948-4.228-9.948-4.228-9.948,9.7-26.363,9.2-30.342,16.564-34.916,16.564-34.916l6.315,50.831S352.428,471.177,350.439,478.638Z" transform="translate(-319.259 -339.044)" opacity="0.1"/><path d="M348.159,478.638s-1.989,13.678-6.963,9.948-4.228-9.948-4.228-9.948,9.7-26.363,9.2-30.342,16.564-34.916,16.564-34.916l6.315,50.831S350.148,471.177,348.159,478.638Z" transform="translate(-317.477 -339.044)" fill="#4d8af0"/><path d="M362.4,371.67s-9.7,6.715-13.429,6.466l-2.9.8a16.018,16.018,0,0,0-11.48,12.395l-.046.238c-1.493,7.959-1.989,29.845-1.989,29.845s.249,5.719,2.735,7.2l15.916,10.954s-.5-11.938,5.473-13.18-1.493-.5-1.493-.5l-10.943-6.468s.249-9.7,3.233-12.932,13.429-20.144,13.429-20.144l-2.984-10.456Z" transform="translate(-314.062 -306.299)" fill="#4d8af0"/><path d="M513.1,401.3s6.112,1.617,10.386,2.4a4.309,4.309,0,0,1,3.108,2.375c1.29,2.7,3.257,7.566,2.919,11.63l3.731,14.674,10.7,12.932-9.7,4.484L523.3,437.61l8.95,23.139-16.664.734s-4.975-37.306-3.731-43.523Z" transform="translate(-454.249 -329.466)" opacity="0.1"/><path d="M515.369,401.3s6.112,1.617,10.386,2.4a4.309,4.309,0,0,1,3.109,2.375c1.29,2.7,3.257,7.566,2.918,11.63l3.731,14.674,10.7,12.932-9.7,4.477L525.568,437.6l8.95,23.139-16.662.742s-4.975-37.306-3.731-43.523Z" transform="translate(-456.026 -329.466)" fill="#4d8af0"/><path d="M341.792,297.16l3.429,16.832-5.6,2.86L336.56,301.69Z" transform="translate(-294.384 -232.482)" fill="#e0e0e0"/><path d="M403.58,341.229l2.611-10.818,3.357,6.341-1.74,5.224Z" transform="translate(-346.811 -258.484)" fill="#e0e0e0"/><path d="M551.87,465.67s0,16.911,2.237,18.155" transform="translate(-485.673 -379.742)" opacity="0.1"/><path d="M390.689,485s-5.163,16.656-3.711,18.4" transform="translate(-356.481 -394.865)" opacity="0.1"/><path d="M400.34,589.85s9.95,6.505,11.316,6.61" transform="translate(-367.139 -476.87)" opacity="0.1"/><path d="M467.786,348.652s.039,1.456-.1,3.209a11.443,11.443,0,0,0,12.375,6.839,8.619,8.619,0,0,1,1.4-5.324C485.439,347.657,467.786,348.652,467.786,348.652Z" transform="translate(-419.831 -288.134)" opacity="0.1"/><circle cx="11.441" cy="11.441" r="11.441" transform="translate(46.706 46.866)" fill="#fda57d"/><path d="M462.479,264.433c1.386.186,3.152-.277,3.418-1.648.338-1.735-1.982-2.862-2.34-4.584-.135-.655.026-1.327-.052-1.984a4.851,4.851,0,0,0-2.32-3.119,17.841,17.841,0,0,0-11.864-3.161,2.659,2.659,0,0,0-1.469.465,5.472,5.472,0,0,0-.945,1.489c-1.074,1.733-3.493,1.938-5.211,3.019a7.485,7.485,0,0,0-3.115,6.13,22.131,22.131,0,0,0,1.262,7.009,16.018,16.018,0,0,0,2.427,5.538,5.457,5.457,0,0,0,5.309,2.227c-.9-.655-.247-2.163.731-2.692s2.183-.62,3.032-1.353a5.534,5.534,0,0,0,1.36-3.019,7.943,7.943,0,0,1,1.845-3.772C456.515,262.99,460.058,264.108,462.479,264.433Z" transform="translate(-397.063 -210.914)" opacity="0.1"/><path d="M461.357,263.249c1.386.186,3.152-.277,3.418-1.648.338-1.735-1.982-2.862-2.34-4.584-.135-.655.026-1.327-.052-1.984a4.893,4.893,0,0,0-2.336-3.13,17.841,17.841,0,0,0-11.858-3.163,2.66,2.66,0,0,0-1.469.465,5.473,5.473,0,0,0-.945,1.489c-1.074,1.733-3.493,1.938-5.211,3.019a7.485,7.485,0,0,0-3.115,6.13,22.134,22.134,0,0,0,1.262,7.009,16.018,16.018,0,0,0,2.427,5.538,5.457,5.457,0,0,0,5.309,2.227c-.9-.655-.247-2.163.731-2.692s2.183-.62,3.032-1.353a5.535,5.535,0,0,0,1.36-3.019,7.943,7.943,0,0,1,1.845-3.772C455.383,261.812,458.934,262.928,461.357,263.249Z" transform="translate(-396.179 -209.978)" fill="#72351c"/><path d="M492.819,342.4a15.139,15.139,0,0,1-1.244,4.523,36.379,36.379,0,0,0-2.375,5.239h0a82.093,82.093,0,0,1,6.909,5.97,5.387,5.387,0,0,0,5.7,1.4,3.655,3.655,0,0,0,2.558-2.89,9.581,9.581,0,0,0-.581-5.549,4.167,4.167,0,0,1-.009-3.388,1.351,1.351,0,0,1,.6-.755s-4.477-1-4.726.249-3.731,2.486-4.477.249l-.205-4.936a1.078,1.078,0,0,0-1.078-1.035h0a1.076,1.076,0,0,0-1.074.926Z" transform="translate(-436.66 -282.576)" opacity="0.1"/><path d="M492.819,343.567a15.14,15.14,0,0,1-1.244,4.523,36.379,36.379,0,0,0-2.375,5.239h0a82.094,82.094,0,0,1,6.909,5.97,5.387,5.387,0,0,0,5.7,1.4,3.655,3.655,0,0,0,2.558-2.89,9.581,9.581,0,0,0-.581-5.549,4.167,4.167,0,0,1-.015-3.4,1.351,1.351,0,0,1,.6-.755s-4.477-1-4.726.249-3.724,2.5-4.477.266l-.205-4.936a1.078,1.078,0,0,0-1.078-1.035h0A1.076,1.076,0,0,0,492.819,343.567Z" transform="translate(-436.66 -283.499)" fill="#72351c"/><path d="M682.587,357.3a26.927,26.927,0,0,1-6.147-10.478h.386l-.186-.519h.186l-.585-1.663c1.657-1.628,2.881-3.207,3.08-4.1.336-1.511.67-9.683.873-15.363l.179.044a4.754,4.754,0,0,0,.5-2.541,9.851,9.851,0,0,0-.367-2.838l-.81-8.11a5.531,5.531,0,0,0-2.128-3.809l-8.208-6.367a5.219,5.219,0,0,1,1.611-1.428,3.628,3.628,0,0,0,1.332-.845c.572-.771.085-1.919.476-2.8.292-.655,1.013-1.022,1.434-1.609.862-1.2.238-2.864-.406-4.2l-3.742-7.734a34.975,34.975,0,0,0-3.532-6.186c-4.438-5.78-12.977-8.655-19.939-6.149a7.889,7.889,0,0,0-4.658,4.014,10.528,10.528,0,0,1-.9,2c-.954,1.329-2.816,1.58-4.148,2.537a6.077,6.077,0,0,0-2.093,5.628,18.051,18.051,0,0,0,2.137,5.894,18.341,18.341,0,0,0,3.641,5.477c.76.7,1.69,1.342,1.932,2.344a17.876,17.876,0,0,1-.083,2.637,2.682,2.682,0,0,0,.319,1.057c-3.674.461-6.28,3.512-7.448,8.053-.072.281-.1.437-.1.437l-.517,4.7c-.011.2,0,.4,0,.594a6.184,6.184,0,0,0,.655,3.056v16.509l-15.717,9.95c-2.357,1.048-1.834,9.428,2.881,11s8.909-8.363,8.909-8.363c2.87-.192,7.7-4.021,10.295-6.985a4.729,4.729,0,0,0,1.369,1.425c-1.873,4.222-5.577,12.956-4.986,14.728.356,1.07,9.555,1.168,19.5.958a4.755,4.755,0,0,0,.8.351,3.6,3.6,0,0,0,3.056-.448C672.188,357.85,682.587,357.3,682.587,357.3Zm-13.274-32.012c.218-.6.934-.934,1.893-1.091v6.368Zm-.915-22.375h0l.031-.046Z" transform="translate(-537.788 -226.539)" fill="url(#w)"/><path d="M650.595,481.652s-.5,17.658-1,19.9-7.706,8.941-11.441,9.2c0,0-3.98,9.45-8.457,7.959s-4.975-9.45-2.735-10.445l14.927-9.452v-18.9Z" transform="translate(-543.44 -390.925)" fill="#fdb797"/><path d="M717.454,587s-6.466,13.927-5.719,16.167,42.279,0,42.279,0S746.3,595.457,747.8,587Z" transform="translate(-610.823 -474.662)" fill="#3ad29f"/><path d="M757.443,392.572s1,9.7-.746,11.938S763.66,408,764.407,408a81.185,81.185,0,0,0,10.2-3.493c1.491-.757,2.735-6.217,2.735-6.217s-7.461,1.493-9.7-7.2Z" transform="translate(-645.764 -321.394)" fill="#fdb797"/><path d="M708.743,280.808a7.493,7.493,0,0,0-4.425,3.814,10.082,10.082,0,0,1-.854,1.9c-.906,1.262-2.674,1.5-3.929,2.4a5.775,5.775,0,0,0-1.989,5.346,17,17,0,0,0,2.028,5.59,17.384,17.384,0,0,0,3.458,5.2c.72.655,1.6,1.275,1.834,2.227a16.951,16.951,0,0,1-.079,2.506c.179,2.067,2.65,3.03,4.713,3.259a3.05,3.05,0,0,0,2.556-.539,4.4,4.4,0,0,0,.69-1.2,5.734,5.734,0,0,1,10.229-.1c.485.93.766,2.061,1.646,2.619,1.347.873,3.15-.151,4.148-1.412s1.714-2.838,3.13-3.6a3.535,3.535,0,0,0,1.266-.8c.544-.731.081-1.823.452-2.654.28-.627.963-.969,1.362-1.528.819-1.142.218-2.72-.386-3.984l-3.554-7.345a33.289,33.289,0,0,0-3.353-5.876C723.462,281.159,715.353,278.429,708.743,280.808Z" transform="translate(-599.743 -234.458)" fill="#6c63ff"/><path d="M717.5,428.49s9.7,0,12.187-8.95l8.164,6.33a5.252,5.252,0,0,1,2.008,3.63l.771,7.7s.873,2.86-.124,4.6c0,0-10.321-2.619-10.57.373l7.2,20.144s-11.192.249-14.176-1.746c0,0-12.187,2.486-15.171-.249s-5.968-2.486-3.493-8.705a12.322,12.322,0,0,1-2.735-11.938c2.24-6.964.125.124.125.124s-4.831-2.362-4.582-6.85l.5-4.477s.026-.148.1-.415c1.517-5.894,5.59-9.168,11.318-7.081a5.242,5.242,0,0,0,3.386-.089S710.536,428.988,717.5,428.49Z" transform="translate(-599.427 -343.697)" opacity="0.1"/><path d="M717.5,426.21s9.7,0,12.187-8.95l8.164,6.33a5.252,5.252,0,0,1,2.008,3.63l.771,7.7s.873,2.86-.124,4.6c0,0-10.321-2.62-10.57.373l7.2,20.144s-11.192.249-14.176-1.746c0,0-12.187,2.486-15.171-.249s-5.968-2.486-3.493-8.705a12.322,12.322,0,0,1-2.735-11.938c2.24-6.963.125.124.125.124s-4.831-2.362-4.582-6.839l.5-4.477s.026-.148.1-.415c1.517-5.894,5.59-9.168,11.318-7.081a5.242,5.242,0,0,0,3.386-.09S710.536,426.708,717.5,426.21Z" transform="translate(-599.427 -341.913)" fill="#252a62"/><path d="M806.685,490.746s-.5,17.658-1,19.9-7.71,8.95-11.441,9.2c0,0-3.979,9.45-8.457,7.959s-4.975-9.45-2.735-10.445l14.922-9.45V489Z" transform="translate(-665.607 -398.038)" fill="#fdb797"/><path d="M847,486.967s5.719,3.881,10.7,3.558c0,0,.5-6.667-1-7.04S848.731,483.486,847,486.967Z" transform="translate(-716.608 -393.572)" opacity="0.1"/><path d="M847,485.827s5.719,3.881,10.7,3.558c0,0,.5-6.667-1-7.04S848.731,482.346,847,485.827Z" transform="translate(-716.608 -392.68)" fill="#252a62"/><path d="M773.416,393.32l-10.2,1.493s.229,2.244.275,4.822a11.445,11.445,0,0,0,12.006-1.952A11.187,11.187,0,0,1,773.416,393.32Z" transform="translate(-651.028 -323.126)" opacity="0.1"/><circle cx="11.441" cy="11.441" r="11.441" transform="translate(104.977 54.057)" fill="#fdb797"/><path d="M748.352,314.773a3.573,3.573,0,0,1-1.528.218q-3.034-.02-6.066-.218a7.443,7.443,0,0,1-4.346-1.264,4.957,4.957,0,0,1-1.019-5.686,10.153,10.153,0,0,1,4.263-4.366,12.728,12.728,0,0,1,3.213-1.449,10.782,10.782,0,0,1,9.511,2.386,16.809,16.809,0,0,1,5.145,8.618c.3,1.135.694,2.488,1.818,2.838a3.066,3.066,0,0,1-3.885.819c-1.934-.919-2.925-4.438-4.661-4.992C748.861,311.053,749.987,314.022,748.352,314.773Z" transform="translate(-628.927 -251.456)" opacity="0.1"/><path d="M748.352,313.648a3.574,3.574,0,0,1-1.528.218q-3.034-.02-6.066-.218a7.443,7.443,0,0,1-4.346-1.264,4.957,4.957,0,0,1-1.019-5.686,10.153,10.153,0,0,1,4.263-4.366,12.727,12.727,0,0,1,3.211-1.445,10.783,10.783,0,0,1,9.511,2.386,16.809,16.809,0,0,1,5.145,8.618c.3,1.135.694,2.488,1.818,2.838a3.066,3.066,0,0,1-3.885.819c-1.934-.919-2.925-4.438-4.661-4.992C748.861,309.929,749.987,312.893,748.352,313.648Z" transform="translate(-628.927 -250.58)" fill="#6c63ff"/><path d="M729.61,558.3a44.059,44.059,0,0,1,11.436-1.493" transform="translate(-624.732 -451.014)" opacity="0.1"/><path d="M836.6,502.13s-3.731,2.735-2.735,4.228" transform="translate(-706.208 -408.243)" opacity="0.1"/><g transform="translate(33.886 120.817)" opacity="0.7"><path d="M422.014,555.42H299.9V566.1h7.107v33.591H415.16V566.1h6.854Z" transform="translate(-299.9 -555.42)" fill="url(#x)"/></g><rect width="105.947" height="38.052" transform="translate(42.094 127.036)" fill="#e0e0e0"/><rect width="105.947" height="5.968" transform="translate(42.094 129.105)" opacity="0.1"/><rect width="119.625" height="10.196" transform="translate(35.13 122.896)" fill="#e0e0e0"/><g transform="translate(66.335 84.391)" opacity="0.7"><rect width="56.869" height="39.321" rx="19.66" fill="url(#x)"/></g><path d="M369.58,658.21s1.471,2.159,5.835,2.82" transform="translate(-343.072 -530.339)" opacity="0.1"/><path d="M492.5,119.622H477V110.89h15.5Zm-14.844-.655h14.189v-7.422H477.655Z" transform="translate(-427.116 -102.158)" fill="#6c63ff" opacity="0.2"/><path d="M563.918,119.622H548V110.89h15.918Zm-15.246-.655h14.573v-7.422H548.673Z" transform="translate(-436.282 -87.392)" fill="#6c63ff" opacity="0.2"/><path d="M634.5,119.622H619V110.89h15.5Zm-14.844-.655h14.189v-7.422H619.655Z" transform="translate(-538.207 -102.158)" fill="#6c63ff" opacity="0.2"/><path d="M705.5,119.622H690V110.89h15.5Zm-14.844-.655h14.189v-7.422H690.655Z" transform="translate(-593.752 -102.158)" fill="#6c63ff" opacity="0.2"/><path d="M634.5,79.622H619V70.89h15.5Zm-14.844-.655h14.189V71.545H619.655Z" transform="translate(-538.207 -70.89)" fill="#6c63ff" opacity="0.2"/><path d="M563.5,79.622H548V70.89h15.5Zm-14.844-.655h14.189V71.545H548.655Z" transform="translate(-482.661 -70.89)" fill="#6c63ff" opacity="0.2"/><path d="M229.5,119.622H214V110.89h15.5Zm-14.844-.655h14.189v-7.422H214.655Z" transform="translate(-214 -87.392)" fill="#6c63ff" opacity="0.2"/><path d="M300.5,119.622H285V110.89h15.5Zm-14.844-.655h14.189v-7.422H285.655Z" transform="translate(-269.501 -87.392)" fill="#6c63ff" opacity="0.2"/><path d="M300.5,79.622H285V70.89h15.5Zm-14.844-.655h14.189V71.545H285.655Z" transform="translate(-269.501 -56.124)" fill="#6c63ff" opacity="0.2"/><path d="M849.5,119.622H834V110.89h15.5Zm-14.844-.655h14.189v-7.422H834.655Z" transform="translate(-706.445 -102.158)" fill="#6c63ff" opacity="0.2"/></g><path d="M372.927,211.2c1.819,5.949-129.874,53.262-196.629,0S-61.89,189.913-61.89,182.818s161.006-44.765,238.188,0S367.525,193.427,372.927,211.2Z" transform="translate(370.3 -1.71)" fill="#6c63ff" opacity="0.1"/><path d="M-61.872,218.433c-1.753,6.81,125.129,60.977,189.444,0s229.485-24.368,229.485-32.49-155.123-51.249-229.485,0S-56.666,198.088-61.872,218.433Z" transform="translate(873.913 -32.575)" fill="#6c63ff" opacity="0.1"/></g></svg>